<svg xmlns="http://www.w3.org/2000/svg" width="64" height="64" viewBox="0 0 64 64">
  <g fill="none" fill-rule="evenodd">
    <rect width="64" height="64" fill="#FF469C" rx="32"/>
    <path fill="#070000" d="M26.0984242,25.4351515 C27.2853333,25.4681212 27.7139394,25.5340606 27.7798788,26.0615758 C27.8787879,26.8198788 27.8787879,27.6770909 27.8787879,29.0618182 L27.8787879,33.6446061 C27.8787879,34.304 27.8458182,34.7985455 27.6150303,35.4249697 C27.1534545,36.6118788 26.2632727,37.7987879 24.6807273,37.7987879 C23.9553939,37.7987879 23.5927273,37.4031515 23.4938182,36.6448485 C23.3289697,35.6557576 23.3289697,34.0402424 23.3289697,31.2048485 C23.3289697,26.9187879 23.4938182,25.3692121 23.6916364,24.5779394 C23.0322424,24.6768485 22.0761212,24.7427879 20.9221818,24.8087273 C19.8012121,24.8746667 18.4494545,24.9406061 17.1636364,24.9406061 L17.1636364,25.4021818 C18.4824242,25.4021818 18.7132121,25.4351515 18.7791515,26.0286061 C18.8121212,26.5561212 18.8780606,27.0836364 18.8450909,28.3364848 C18.8121212,30.7762424 18.7791515,33.3478788 18.7461818,35.7546667 C18.7461818,36.5129697 18.8780606,37.1393939 19.0429091,37.568 C19.3066667,38.2273939 20.2627879,39.2494545 22.4058182,39.2494545 C25.0763636,39.2494545 26.8567273,37.568 27.8458182,36.5129697 C27.8458182,37.1064242 27.8787879,38.3592727 27.9117576,39.2494545 C28.3733333,39.1835152 29.494303,39.0516364 30.8790303,38.9197576 C32.3956364,38.8208485 33.3517576,38.7219394 34.3738182,38.6889697 L34.4067879,38.2273939 C32.8242424,38.2603636 32.6923636,38.1614545 32.5934545,37.3701818 C32.4615758,36.1832727 32.4615758,34.8974545 32.4615758,33.2489697 L32.4615758,29.0947879 C32.4615758,26.9847273 32.5275152,25.4351515 32.5934545,24.6768485 C32.2307879,24.6768485 31.4065455,24.7757576 30.153697,24.841697 C28.9338182,24.9406061 27.2853333,24.9735758 26.0654545,24.9735758 L26.0984242,25.4351515 Z M45.3527273,29.3915152 C45.3197576,28.3364848 45.3197576,26.4901818 45.6164848,24.3801212 L45.3197576,24.182303 L44.8252121,25.4681212 C44.2647273,24.9076364 42.6492121,24.4790303 41.3633939,24.4790303 C38.4290909,24.4790303 35.9563636,26.1934545 35.9563636,29.3585455 C35.9563636,30.9740606 36.6157576,32.3917576 38.7917576,33.3149091 C39.8797576,33.7764848 41.3304242,34.4358788 42.3524848,34.9304242 C43.0448485,35.2601212 43.4404848,35.8535758 43.4404848,36.5129697 C43.4404848,37.7328485 42.7810909,38.656 40.9018182,38.656 C39.3522424,38.656 37.8356364,37.6998788 37.0773333,36.150303 C36.4838788,35.0293333 36.3190303,34.0402424 36.1871515,33.2489697 L35.8244848,33.3478788 C35.9233939,35.5238788 35.9233939,37.4690909 35.8904242,38.3592727 C36.9454545,38.7549091 38.7917576,39.2164848 40.4732121,39.2164848 C43.6712727,39.2164848 46.5396364,37.8317576 46.5396364,34.0732121 C46.5396364,32.6884848 45.9461818,31.5015758 44.4625455,30.7432727 C43.4075152,30.1827879 40.7699394,29.2926061 39.7149091,28.6991515 C39.0884848,28.3364848 38.7258182,27.8089697 38.7258182,27.0836364 C38.7258182,25.929697 39.5500606,25.0065455 41.1326061,25.0065455 C43.5393939,25.0065455 44.9241212,27.5122424 44.9570909,29.5563636 L45.3527273,29.3915152 Z"/>
    <path fill="#FFFFFF" d="M20.75 12.76L21.48 12.76C21.72 11.86 21.98 11.23 22.47 10.75 22.86 10.37 23.26 10.21 23.71 10.21 24.26 10.21 24.61 10.5 24.61 10.92 24.61 11.27 24.34 11.42 24.14 11.42 23.93 11.42 23.8 11.31 23.83 11.15 23.85 11.05 23.88 10.94 23.88 10.87 23.88 10.66 23.81 10.51 23.54 10.51 23.23 10.51 22.99 10.82 22.79 11.31 22.64 11.7 22.49 12.21 22.35 12.76L23.34 12.76 23.23 13.05 22.26 13.12C21.86 14.76 21.39 16.53 21.08 17.38 20.76 18.22 20.37 18.76 19.7 19.16 19.39 19.35 19.11 19.4 18.81 19.4 18.43 19.4 18.07 19.12 18.07 18.81 18.07 18.6 18.23 18.39 18.42 18.33 18.56 18.27 18.66 18.31 18.74 18.45 18.91 18.75 19.1 18.93 19.35 18.93 19.72 18.93 19.93 18.59 20.16 17.84 20.42 17.04 20.95 14.97 21.39 13.12L20.64 13.05 20.75 12.76zM25.64 12.59C26.58 12.59 27.09 13.12 27.09 14.09 27.1 15.05 26.6 16.19 25.81 16.74 25.39 17.03 24.97 17.14 24.46 17.14 23.8 17.14 23 16.88 23 15.69 23 14.71 23.53 13.56 24.35 13 24.72 12.74 25.16 12.59 25.64 12.59zM25.62 12.88C25.26 12.88 24.94 13.06 24.63 13.49 24.2 14.08 23.85 15.21 23.85 15.94 23.85 16.62 24.18 16.85 24.53 16.85 24.83 16.85 25.11 16.72 25.37 16.41 25.87 15.8 26.26 14.53 26.26 13.74 26.26 13.24 26.07 12.88 25.62 12.88zM27.94 13.12C28.1 13.11 28.39 13.11 28.51 13.11 28.6 13.12 28.65 13.17 28.64 13.29 28.56 14 28.01 15.88 27.58 17.09 27.82 17.06 28.12 17.03 28.47 17.02 28.7 16.21 28.93 15.57 29.16 15.02 29.48 14.25 30.01 13.31 30.38 13.31 30.51 13.31 30.56 13.4 30.61 13.54 30.64 13.67 30.72 13.74 30.87 13.74 31.08 13.74 31.37 13.55 31.37 13.11 31.37 12.9 31.24 12.59 30.87 12.59 30.29 12.59 29.8 13.13 29.23 14.27L29.19 14.27C29.31 13.79 29.53 12.98 29.58 12.59 29.16 12.72 28.53 12.8 28.04 12.84L27.94 13.12zM35.8 15.63L35.95 15.96C35.56 16.74 34.82 17.14 34.24 17.14 33.46 17.14 33.5 16.62 33.66 16.07 33.94 15.15 34.35 13.81 34.55 13.12L33.85 13.05 33.98 12.76 34.66 12.76C34.82 12.29 34.94 11.86 35.03 11.55 35.37 11.5 35.74 11.43 35.99 11.33 35.9 11.54 35.67 12.22 35.5 12.76L36.59 12.76 36.44 13.05 35.39 13.12C35.2 13.69 34.61 15.64 34.44 16.36 34.39 16.58 34.41 16.73 34.63 16.73 35.08 16.73 35.59 16.13 35.8 15.63zM37.32 10.68L37.43 10.42C37.71 10.41 38.72 10.34 39.16 10.23 39.01 10.61 38.51 12.17 37.96 14.06 38.51 13.34 39.3 12.59 40.2 12.59 40.47 12.59 40.61 12.67 40.72 12.77 40.97 13.02 40.86 13.58 40.75 13.9 40.44 14.83 40.09 15.74 39.89 16.34 39.84 16.5 39.84 16.66 39.97 16.66 40.26 16.66 40.69 16.19 40.93 15.69L41.13 15.9C40.72 16.72 40.14 17.15 39.54 17.15 38.93 17.15 38.96 16.57 39.19 15.9 39.52 14.96 39.86 14.06 40.01 13.58 40.08 13.36 40.1 13.04 39.76 13.04 39.39 13.04 38.82 13.38 38.24 14.2 37.89 14.7 37.67 15.24 37.5 15.76 37.38 16.14 37.27 16.47 37.11 17.03 36.9 17.03 36.54 17.07 36.25 17.09 36.48 16.34 36.93 14.96 37.4 13.32 37.85 11.72 38 11.19 38.08 10.86 38.1 10.75 38.08 10.69 37.93 10.69L37.32 10.68zM45.06 15.46L45.09 15.96C44.61 16.7 43.78 17.14 42.94 17.14 42.11 17.14 41.65 16.63 41.65 15.75 41.65 14.78 42.12 13.69 42.96 13.04 43.36 12.74 43.81 12.59 44.27 12.59 45.11 12.59 45.39 13.09 45.39 13.61 45.39 14.08 45.03 14.34 44.68 14.5 44.16 14.74 43.21 14.95 42.63 15.02 42.59 15.21 42.56 15.49 42.56 15.72 42.56 16.29 42.77 16.72 43.33 16.72 44.02 16.72 44.57 16.27 44.91 15.46L45.06 15.46zM44.16 12.89C43.75 12.89 43.1 13.28 42.69 14.7 43.14 14.65 43.77 14.49 44.06 14.35 44.44 14.17 44.63 13.86 44.63 13.47 44.63 13.1 44.46 12.89 44.16 12.89zM20.63 48.12C20.79 48.11 21.08 48.11 21.2 48.11 21.29 48.12 21.34 48.17 21.33 48.29 21.25 49 20.7 50.88 20.27 52.09 20.51 52.06 20.81 52.03 21.16 52.02 21.39 51.21 21.62 50.57 21.85 50.02 22.17 49.25 22.7 48.31 23.07 48.31 23.2 48.31 23.25 48.4 23.3 48.54 23.33 48.67 23.41 48.74 23.56 48.74 23.77 48.74 24.06 48.55 24.06 48.11 24.06 47.9 23.93 47.59 23.56 47.59 22.98 47.59 22.49 48.13 21.92 49.27L21.88 49.27C22 48.79 22.22 47.98 22.27 47.59 21.85 47.72 21.22 47.8 20.73 47.84L20.63 48.12zM27.53 50.46L27.56 50.96C27.08 51.7 26.25 52.14 25.41 52.14 24.58 52.14 24.12 51.63 24.12 50.75 24.12 49.78 24.59 48.69 25.43 48.04 25.83 47.74 26.28 47.59 26.74 47.59 27.58 47.59 27.86 48.09 27.86 48.61 27.86 49.08 27.5 49.34 27.15 49.5 26.63 49.74 25.68 49.95 25.1 50.02 25.06 50.21 25.03 50.49 25.03 50.72 25.03 51.29 25.24 51.72 25.8 51.72 26.49 51.72 27.04 51.27 27.38 50.46L27.53 50.46zM26.63 47.89C26.22 47.89 25.57 48.28 25.16 49.7 25.61 49.65 26.24 49.49 26.53 49.35 26.91 49.17 27.1 48.86 27.1 48.47 27.1 48.1 26.93 47.89 26.63 47.89zM31.55 47.56L31.28 47.94C31.15 47.76 30.78 47.59 30.35 47.59 29.94 47.59 29.59 47.69 29.31 47.92 28.99 48.19 28.82 48.54 28.82 48.97 28.82 49.42 29.05 49.71 29.36 49.93 29.63 50.15 29.96 50.4 30.16 50.57 30.36 50.73 30.46 50.88 30.46 51.14 30.45 51.61 30.05 51.84 29.61 51.84 28.95 51.84 28.63 51.48 28.64 50.94 28.65 50.74 28.69 50.43 28.74 50.26L28.48 50.3C28.32 50.89 28.14 51.47 28.03 51.74 28.41 51.99 28.97 52.14 29.45 52.14 29.99 52.14 30.43 52 30.73 51.75 31 51.52 31.22 51.19 31.22 50.74 31.23 50.31 31.06 50.07 30.75 49.85 30.49 49.66 30.06 49.35 29.84 49.17 29.64 49.02 29.54 48.86 29.54 48.59 29.54 48.21 29.81 47.88 30.26 47.88 30.89 47.88 31.14 48.39 30.98 49.24L31.22 49.23C31.36 48.69 31.57 48.1 31.76 47.67L31.55 47.56zM34.35 50.63C34.14 51.13 33.63 51.73 33.18 51.73 32.96 51.73 32.94 51.58 32.99 51.36 33.16 50.64 33.75 48.69 33.94 48.12L34.99 48.05 35.14 47.76 34.05 47.76C34.22 47.22 34.45 46.54 34.54 46.33 34.29 46.43 33.92 46.5 33.58 46.55 33.49 46.86 33.37 47.29 33.21 47.76L32.53 47.76 32.4 48.05 33.1 48.12C32.9 48.81 32.49 50.15 32.21 51.07 32.05 51.62 32.01 52.14 32.79 52.14 33.37 52.14 34.11 51.74 34.5 50.96L34.35 50.63zM39.79 47.59C40.73 47.59 41.24 48.12 41.24 49.09 41.25 50.05 40.75 51.19 39.96 51.74 39.54 52.03 39.12 52.14 38.61 52.14 37.95 52.14 37.15 51.88 37.15 50.69 37.15 49.71 37.68 48.56 38.5 48 38.87 47.74 39.31 47.59 39.79 47.59zM39.77 47.88C39.41 47.88 39.09 48.06 38.78 48.49 38.35 49.08 38 50.21 38 50.94 38 51.62 38.33 51.85 38.68 51.85 38.98 51.85 39.26 51.72 39.52 51.41 40.02 50.8 40.41 49.53 40.41 48.74 40.41 48.24 40.22 47.88 39.77 47.88zM42.21 47.76L42.94 47.76C43.18 46.86 43.44 46.23 43.93 45.75 44.32 45.37 44.72 45.21 45.17 45.21 45.72 45.21 46.07 45.5 46.07 45.92 46.07 46.27 45.8 46.42 45.6 46.42 45.39 46.42 45.26 46.31 45.29 46.15 45.31 46.05 45.34 45.94 45.34 45.87 45.34 45.66 45.27 45.51 45 45.51 44.69 45.51 44.45 45.82 44.25 46.31 44.1 46.7 43.95 47.21 43.81 47.76L44.8 47.76 44.69 48.05 43.72 48.12C43.32 49.76 42.85 51.53 42.54 52.38 42.22 53.22 41.83 53.76 41.16 54.16 40.85 54.35 40.57 54.4 40.27 54.4 39.89 54.4 39.53 54.12 39.53 53.81 39.53 53.6 39.69 53.39 39.88 53.33 40.02 53.27 40.12 53.31 40.2 53.45 40.37 53.75 40.56 53.93 40.81 53.93 41.18 53.93 41.39 53.59 41.62 52.84 41.88 52.04 42.41 49.97 42.85 48.12L42.1 48.05 42.21 47.76z"/>
  </g>
</svg>
